<svg width="16" height="16" viewBox="0 0 16 16" fill="none" xmlns="http://www.w3.org/2000/svg">
<path d="M9.9999 11.5H5.9299C5.88039 11.3246 5.80811 11.1565 5.7149 11L10.9999 5.71499C11.3009 5.89969 11.6468 5.99826 11.9999 5.99999C12.3742 6.0012 12.7414 5.89733 13.0596 5.7002C13.3779 5.50306 13.6344 5.22057 13.8 4.88486C13.9656 4.54914 14.0337 4.17369 13.9965 3.8012C13.9593 3.42871 13.8183 3.07414 13.5895 2.77783C13.3608 2.48151 13.0534 2.25534 12.7025 2.12505C12.3516 1.99476 11.9711 1.96557 11.6044 2.04082C11.2377 2.11606 10.8995 2.2927 10.6282 2.55066C10.3569 2.80862 10.1635 3.13753 10.0699 3.49999H5.9299C5.8082 3.02866 5.51879 2.61789 5.1159 2.34469C4.71301 2.07148 4.22431 1.95459 3.7414 2.01593C3.25849 2.07727 2.81453 2.31262 2.49274 2.67787C2.17094 3.04313 1.99341 3.5132 1.99341 3.99999C1.99341 4.48678 2.17094 4.95685 2.49274 5.32211C2.81453 5.68736 3.25849 5.92271 3.7414 5.98405C4.22431 6.04539 4.71301 5.9285 5.1159 5.65529C5.51879 5.38208 5.8082 4.97132 5.9299 4.49999H10.0699C10.1194 4.67533 10.1917 4.84343 10.2849 4.99999L4.9999 10.285C4.69892 10.1003 4.35303 10.0017 3.9999 9.99999C3.62556 9.99878 3.25839 10.1026 2.94016 10.2998C2.62194 10.4969 2.36542 10.7794 2.1998 11.1151C2.03418 11.4508 1.96611 11.8263 2.00332 12.1988C2.04053 12.5713 2.18153 12.9258 2.41028 13.2222C2.63904 13.5185 2.94637 13.7446 3.2973 13.8749C3.64824 14.0052 4.0287 14.0344 4.3954 13.9592C4.7621 13.8839 5.10033 13.7073 5.3716 13.4493C5.64288 13.1914 5.83631 12.8624 5.9299 12.5H9.9999V14H13.9999V9.99999H9.9999V11.5ZM3.9999 4.99999C3.80212 4.99999 3.60878 4.94134 3.44433 4.83146C3.27988 4.72158 3.15171 4.5654 3.07602 4.38267C3.00033 4.19995 2.98053 3.99888 3.01911 3.8049C3.0577 3.61092 3.15294 3.43274 3.29279 3.29288C3.43265 3.15303 3.61083 3.05779 3.80481 3.0192C3.99879 2.98062 4.19986 3.00042 4.38258 3.07611C4.56531 3.1518 4.72149 3.27997 4.83137 3.44442C4.94125 3.60887 4.9999 3.80221 4.9999 3.99999C4.9999 4.26521 4.89454 4.51956 4.70701 4.7071C4.51947 4.89463 4.26512 4.99999 3.9999 4.99999ZM11.9999 2.99999C12.1977 2.99999 12.391 3.05864 12.5555 3.16852C12.7199 3.2784 12.8481 3.43458 12.9238 3.61731C12.9995 3.80003 13.0193 4.0011 12.9807 4.19508C12.9421 4.38906 12.8469 4.56724 12.707 4.7071C12.5672 4.84695 12.389 4.94219 12.195 4.98077C12.001 5.01936 11.7999 4.99956 11.6172 4.92387C11.4345 4.84818 11.2783 4.72001 11.1684 4.55556C11.0585 4.39111 10.9999 4.19777 10.9999 3.99999C10.9999 3.73477 11.1053 3.48042 11.2928 3.29288C11.4803 3.10535 11.7347 2.99999 11.9999 2.99999ZM3.9999 13C3.80212 13 3.60878 12.9413 3.44433 12.8315C3.27988 12.7216 3.15171 12.5654 3.07602 12.3827C3.00033 12.1999 2.98053 11.9989 3.01911 11.8049C3.0577 11.6109 3.15294 11.4327 3.29279 11.2929C3.43265 11.153 3.61083 11.0578 3.80481 11.0192C3.99879 10.9806 4.19986 11.0004 4.38258 11.0761C4.56531 11.1518 4.72149 11.28 4.83137 11.4444C4.94125 11.6089 4.9999 11.8022 4.9999 12C4.9999 12.2652 4.89454 12.5196 4.70701 12.7071C4.51947 12.8946 4.26512 13 3.9999 13ZM10.9999 11H12.9999V13H10.9999V11Z" fill="#506901"/>
</svg>
