<svg width="16" height="16" viewBox="0 0 16 16" fill="none" xmlns="http://www.w3.org/2000/svg">
<path d="M7.99999 12C7.91844 12 7.83689 11.9801 7.76294 11.9402L1.26294 8.4402L1.73704 7.55985L7.99999 10.9322L14.2629 7.55985L14.737 8.4402L8.23704 11.9402C8.16309 11.9801 8.08154 12 7.99999 12Z" fill="#035F69"/>
<path d="M7.99999 15C7.91844 15 7.83689 14.9801 7.76294 14.9402L1.26294 11.4402L1.73704 10.5599L7.99999 13.9322L14.2629 10.5599L14.737 11.4402L8.23704 14.9402C8.16309 14.9801 8.08154 15 7.99999 15Z" fill="#035F69"/>
<path d="M14.737 4.5598L7.99999 0.932152V2.0679L13.4453 5.00005L7.99999 7.9322V9.06795L14.737 5.44025C14.899 5.3531 15 5.18415 15 5.00005C15 4.81595 14.899 4.64695 14.737 4.5598Z" fill="#035F69"/>
<path d="M2.20704 4.70705L3.99999 2.91405V7H4.99999V2.91405L6.79294 4.707L7.49999 4L4.49999 1L1.49999 4L2.20704 4.70705Z" fill="#035F69"/>
</svg>
