<svg width="16" height="16" viewBox="0 0 16 16" fill="none" xmlns="http://www.w3.org/2000/svg">
<path d="M7.99999 14H1.99999C1.86658 14.008 1.73298 13.9876 1.60802 13.9402C1.48306 13.8928 1.36958 13.8194 1.27508 13.7249C1.18057 13.6304 1.10718 13.5169 1.05976 13.392C1.01235 13.267 0.991974 13.1334 0.999994 13V6.99999C0.991974 6.86658 1.01235 6.73298 1.05976 6.60802C1.10718 6.48306 1.18057 6.36958 1.27508 6.27507C1.36958 6.18057 1.48306 6.10718 1.60802 6.05976C1.73298 6.01235 1.86658 5.99197 1.99999 5.99999H7.99999C8.13341 5.99197 8.267 6.01235 8.39196 6.05976C8.51692 6.10718 8.6304 6.18057 8.72491 6.27507C8.81942 6.36958 8.89281 6.48306 8.94022 6.60802C8.98764 6.73298 9.00801 6.86658 8.99999 6.99999V13C9.00801 13.1334 8.98764 13.267 8.94022 13.392C8.89281 13.5169 8.81942 13.6304 8.72491 13.7249C8.6304 13.8194 8.51692 13.8928 8.39196 13.9402C8.267 13.9876 8.13341 14.008 7.99999 14ZM1.99999 6.99999V13H7.99999V6.99999H1.99999Z" fill="#035F69"/>
<path d="M11 9.49999H9.99999V4.99999H4.99999V3.99999H9.99999C10.1334 3.99197 10.267 4.01235 10.392 4.05976C10.5169 4.10718 10.6304 4.18057 10.7249 4.27507C10.8194 4.36958 10.8928 4.48306 10.9402 4.60802C10.9876 4.73298 11.008 4.86658 11 4.99999V9.49999Z" fill="#035F69"/>
<path d="M13 6.99999H12V2.99999H7.99999V1.99999H12C12.1334 1.99197 12.267 2.01235 12.392 2.05976C12.5169 2.10718 12.6304 2.18057 12.7249 2.27508C12.8194 2.36958 12.8928 2.48306 12.9402 2.60802C12.9876 2.73298 13.008 2.86658 13 2.99999V6.99999Z" fill="#035F69"/>
<path d="M12 8.49999V9.49999H13.4L11 12.2V11H9.99999V14H13V13H11.6L14 10.3V11.5H15V8.49999H12Z" fill="#035F69"/>
</svg>
