<svg width="16" height="16" viewBox="0 0 16 16" fill="none" xmlns="http://www.w3.org/2000/svg">
<path d="M9.415 13L10.705 11.71L10 11L8 13L10 15L10.71 14.295L9.415 13Z" fill="#035F69"/>
<path d="M13.585 13L12.295 14.29L13 15L15 13L13 11L12.29 11.705L13.585 13Z" fill="#035F69"/>
<path d="M7 14H4V1.99995H8V4.99995C8.00077 5.26493 8.10637 5.51884 8.29374 5.70621C8.48111 5.89358 8.73502 5.99919 9 5.99995H12V8.99995H13V4.99995C13.0018 4.93423 12.9893 4.86891 12.9634 4.80849C12.9375 4.74806 12.8988 4.69397 12.85 4.64995L9.35 1.14995C9.30599 1.10111 9.2519 1.06241 9.19147 1.03652C9.13104 1.01062 9.06572 0.998143 9 0.999951H4C3.73502 1.00072 3.48111 1.10632 3.29374 1.29369C3.10637 1.48106 3.00077 1.73497 3 1.99995V14C3.00077 14.2649 3.10637 14.5188 3.29374 14.7062C3.48111 14.8936 3.73502 14.9992 4 15H7V14ZM9 2.19995L11.8 4.99995H9V2.19995Z" fill="#035F69"/>
</svg>
