<svg width="16" height="16" viewBox="0 0 16 16" fill="none" xmlns="http://www.w3.org/2000/svg">
<path d="M8 15C6.14413 14.9979 4.36486 14.2597 3.05256 12.9474C1.74026 11.6351 1.00209 9.85588 1 8H2C2.00022 9.07602 2.28974 10.1322 2.83824 11.0579C3.38674 11.9836 4.17405 12.7449 5.11772 13.2619C6.06139 13.7789 7.1267 14.0327 8.20212 13.9967C9.27753 13.9606 10.3235 13.6361 11.2304 13.0572L11.7696 13.8992C10.6444 14.6195 9.33601 15.0016 8 15Z" fill="#035F69"/>
<path d="M13 8.5L12.2929 9.20706L13.0859 10H7.90785C7.87257 9.89935 7.8266 9.80277 7.77075 9.7119L10.0112 6.9114C10.168 6.96819 10.3333 6.99814 10.5 7C10.7753 7.00117 11.0455 6.92657 11.2812 6.78437C11.5169 6.64217 11.709 6.43786 11.8363 6.1938C11.9636 5.94975 12.0213 5.67537 12.0031 5.4007C11.9848 5.12604 11.8914 4.86169 11.7329 4.6366C11.5745 4.4115 11.3572 4.23435 11.1047 4.12454C10.8523 4.01473 10.5746 3.9765 10.3019 4.01402C10.0292 4.05155 9.77206 4.16339 9.55868 4.3373C9.34531 4.51121 9.18391 4.74048 9.09215 5H6.90785C6.80596 4.70784 6.6157 4.45461 6.36344 4.27542C6.11118 4.09623 5.80942 3.99996 5.5 3.99996C5.19058 3.99996 4.88882 4.09623 4.63656 4.27542C4.3843 4.45461 4.19404 4.70784 4.09215 5H1V6H4.09215C4.19404 6.29217 4.3843 6.5454 4.63656 6.72459C4.88882 6.90378 5.19058 7.00005 5.5 7.00005C5.80942 7.00005 6.11118 6.90378 6.36344 6.72459C6.6157 6.5454 6.80596 6.29217 6.90785 6H9.09215C9.12743 6.10066 9.1734 6.19724 9.22925 6.2881L6.98875 9.0886C6.83197 9.03182 6.66674 9.00187 6.5 9C6.22473 8.99884 5.95446 9.07344 5.71876 9.21564C5.48307 9.35784 5.29105 9.56215 5.16373 9.8062C5.03641 10.0503 4.97871 10.3246 4.99693 10.5993C5.01516 10.874 5.10861 11.1383 5.26706 11.3634C5.42551 11.5885 5.64284 11.7657 5.89526 11.8755C6.14767 11.9853 6.42544 12.0235 6.69813 11.986C6.97083 11.9485 7.22794 11.8366 7.44132 11.6627C7.65469 11.4888 7.81609 11.2595 7.90785 11H13.0859L12.2929 11.793L13 12.5L15 10.5L13 8.5ZM10.5 5C10.5989 5 10.6956 5.02933 10.7778 5.08427C10.86 5.13921 10.9241 5.2173 10.9619 5.30866C10.9998 5.40003 11.0097 5.50056 10.9904 5.59755C10.9711 5.69454 10.9235 5.78363 10.8536 5.85356C10.7836 5.92348 10.6945 5.9711 10.5975 5.9904C10.5006 6.00969 10.4 5.99979 10.3087 5.96194C10.2173 5.9241 10.1392 5.86001 10.0843 5.77779C10.0293 5.69557 10 5.5989 10 5.5C10.0001 5.36743 10.0528 5.24033 10.1466 5.14658C10.2403 5.05284 10.3674 5.00012 10.5 5ZM5.5 6C5.40111 6 5.30444 5.97068 5.22221 5.91574C5.13999 5.8608 5.0759 5.78271 5.03806 5.69135C5.00022 5.59998 4.99031 5.49945 5.00961 5.40246C5.0289 5.30547 5.07652 5.21638 5.14645 5.14645C5.21637 5.07653 5.30546 5.0289 5.40245 5.00961C5.49945 4.99032 5.59998 5.00022 5.69134 5.03806C5.7827 5.07591 5.86079 5.13999 5.91573 5.22222C5.97068 5.30444 6 5.40111 6 5.5C5.99988 5.63258 5.94716 5.75968 5.85342 5.85343C5.75968 5.94717 5.63257 5.99989 5.5 6ZM6.5 11C6.40111 11 6.30444 10.9707 6.22221 10.9157C6.13999 10.8608 6.0759 10.7827 6.03806 10.6913C6.00022 10.6 5.99031 10.4994 6.00961 10.4025C6.0289 10.3055 6.07652 10.2164 6.14645 10.1465C6.21637 10.0765 6.30546 10.0289 6.40245 10.0096C6.49945 9.99032 6.59998 10.0002 6.69134 10.0381C6.7827 10.0759 6.86079 10.14 6.91573 10.2222C6.97068 10.3044 7 10.4011 7 10.5C6.99988 10.6326 6.94716 10.7597 6.85342 10.8534C6.75968 10.9472 6.63257 10.9999 6.5 11Z" fill="#035F69"/>
<path d="M15 8H14C13.9998 6.92399 13.7103 5.86782 13.1618 4.9421C12.6133 4.01638 11.826 3.25515 10.8823 2.73814C9.93861 2.22112 8.8733 1.96734 7.79788 2.00335C6.72247 2.03937 5.67651 2.36386 4.76955 2.94285L4.23045 2.10085C5.28849 1.42505 6.50879 1.04618 7.76354 1.00395C9.01828 0.961714 10.2613 1.25766 11.3624 1.8608C12.4635 2.46393 13.3821 3.35206 14.0221 4.43215C14.6621 5.51224 14.9998 6.74455 15 8Z" fill="#035F69"/>
</svg>
